<svg xmlns="http://www.w3.org/2000/svg" xmlns:xlink="http://www.w3.org/1999/xlink" width="500" zoomAndPan="magnify" viewBox="0 0 375 374.999991" height="500" preserveAspectRatio="xMidYMid meet" version="1.2"><defs><clipPath id="29fdbd0b12"><path d="M 20.984375 130 L 157 130 L 157 364 L 20.984375 364 Z M 20.984375 130 "/></clipPath><clipPath id="9ca2650069"><path d="M 161 212 L 353.984375 212 L 353.984375 364 L 161 364 Z M 161 212 "/></clipPath><clipPath id="5c132bdf56"><path d="M 15.351562 123 L 151 123 L 151 358 L 15.351562 358 Z M 15.351562 123 "/></clipPath><clipPath id="f67df88507"><path d="M 155 205 L 348.351562 205 L 348.351562 358 L 155 358 Z M 155 205 "/></clipPath></defs><g id="dc3ef18452"><path style=" stroke:none;fill-rule:nonzero;fill:#7f664f;fill-opacity:1;" d="M 94.460938 111.296875 C 113.683594 111.296875 127.59375 85.507812 127.59375 68.128906 C 127.59375 49.867188 112.726562 34.996094 94.460938 34.996094 C 76.1875 34.996094 61.328125 49.867188 61.328125 68.128906 C 61.328125 85.507812 65.742188 111.296875 94.460938 111.296875 Z M 94.460938 111.296875 "/><path style=" stroke:none;fill-rule:nonzero;fill:#7f664f;fill-opacity:1;" d="M 182.582031 250.324219 C 166.898438 231.488281 147.191406 231.09375 127.59375 228.96875 C 127.222656 214.121094 126.441406 200.082031 125.390625 187.457031 C 133.320312 194.828125 141.71875 201.121094 148.105469 201.703125 C 152.371094 202.101562 158.949219 202.320312 166.347656 202.359375 L 182.757812 202.359375 C 196.660156 202.195312 205.601562 202.359375 208.921875 202.359375 C 226.214844 202.359375 222.21875 183.660156 208.703125 181.234375 C 199.128906 179.507812 155.984375 173.484375 155.984375 173.484375 C 143.195312 164.574219 118.769531 135.761719 112.796875 128.609375 C 112.496094 128.238281 111.382812 126.988281 111.382812 126.988281 C 106.167969 121.046875 98.644531 117.113281 88.539062 117.757812 C 71.214844 118.851562 51.722656 124.9375 48.527344 159.214844 C 47.257812 172.652344 49.515625 238.824219 54.84375 257.066406 C 61.328125 279.191406 99.84375 276.046875 115.265625 276.234375 C 124.972656 276.339844 134.996094 276.441406 143.234375 278.449219 C 152.132812 280.605469 157.015625 281.792969 165.503906 294.101562 C 176.015625 309.316406 193.53125 361.097656 213.261719 361.097656 C 222.675781 361.097656 229.429688 352.574219 225.175781 340.140625 C 222.15625 331.347656 207.347656 280.085938 182.582031 250.324219 Z M 182.582031 250.324219 "/><g clip-rule="nonzero" clip-path="url(#29fdbd0b12)"><path style=" stroke:none;fill-rule:nonzero;fill:#7f664f;fill-opacity:1;" d="M 127.59375 285.183594 L 67.394531 285.183594 C 53.628906 285.183594 45.550781 280.25 41.191406 269.21875 C 36.945312 258.480469 36.945312 243.996094 36.945312 230.644531 L 36.945312 138.070312 C 36.945312 133.667969 33.367188 130.089844 28.964844 130.089844 C 24.5625 130.089844 20.984375 133.667969 20.984375 138.070312 L 20.984375 231.238281 C 20.984375 245.410156 20.984375 261.507812 26.34375 275.078125 C 33.179688 292.375 46.988281 301.148438 67.394531 301.148438 L 127.59375 301.148438 C 138.96875 301.148438 140.425781 307.996094 140.425781 313.96875 L 140.425781 355.6875 C 140.425781 360.097656 143.996094 363.667969 148.40625 363.667969 C 152.808594 363.667969 156.390625 360.097656 156.390625 355.6875 L 156.390625 313.96875 C 156.390625 296.214844 145.347656 285.183594 127.59375 285.183594 Z M 127.59375 285.183594 "/></g><g clip-rule="nonzero" clip-path="url(#9ca2650069)"><path style=" stroke:none;fill-rule:nonzero;fill:#7f664f;fill-opacity:1;" d="M 346 212.015625 L 169.074219 212.015625 C 164.671875 212.015625 161.09375 215.585938 161.09375 220 C 161.09375 224.410156 164.671875 227.980469 169.074219 227.980469 L 240.910156 227.980469 L 240.910156 363.679688 L 324.710938 363.679688 L 324.710938 227.980469 L 345.992188 227.980469 C 350.394531 227.980469 353.972656 224.410156 353.972656 220 C 353.972656 215.585938 350.402344 212.015625 346 212.015625 Z M 346 212.015625 "/></g><path style=" stroke:none;fill-rule:nonzero;fill:#7f664f;fill-opacity:1;" d="M 191.15625 172.753906 L 232.4375 172.753906 L 232.4375 206.6875 L 263.492188 206.6875 L 263.492188 172.753906 L 298.308594 172.753906 C 302.691406 172.753906 307.101562 169.246094 308.082031 164.980469 L 325.605469 88.996094 C 326.582031 84.726562 323.796875 81.222656 319.414062 81.222656 L 212.25 81.222656 C 207.871094 81.222656 203.457031 84.726562 202.480469 88.996094 L 184.953125 164.980469 C 183.988281 169.246094 186.765625 172.753906 191.15625 172.753906 Z M 215.277344 95.0625 L 309.996094 95.0625 L 295.269531 158.925781 L 200.554688 158.925781 Z M 215.277344 95.0625 "/><path style=" stroke:none;fill-rule:nonzero;fill:#ccd5ae;fill-opacity:1;" d="M 88.828125 105.074219 C 108.050781 105.074219 121.960938 79.289062 121.960938 61.910156 C 121.960938 43.644531 107.09375 28.777344 88.828125 28.777344 C 70.554688 28.777344 55.695312 43.644531 55.695312 61.910156 C 55.695312 79.289062 60.109375 105.074219 88.828125 105.074219 Z M 88.828125 105.074219 "/><path style=" stroke:none;fill-rule:nonzero;fill:#ccd5ae;fill-opacity:1;" d="M 176.949219 244.101562 C 161.265625 225.265625 141.558594 224.871094 121.960938 222.75 C 121.585938 207.898438 120.808594 193.859375 119.757812 181.238281 C 127.6875 188.605469 136.082031 194.902344 142.472656 195.484375 C 146.738281 195.878906 153.316406 196.097656 160.714844 196.140625 L 177.125 196.140625 C 191.027344 195.972656 199.96875 196.140625 203.289062 196.140625 C 220.582031 196.140625 216.585938 177.4375 203.070312 175.015625 C 193.496094 173.289062 150.351562 167.261719 150.351562 167.261719 C 137.5625 158.355469 113.136719 129.539062 107.164062 122.390625 C 106.863281 122.015625 105.75 120.765625 105.75 120.765625 C 100.535156 114.824219 93.011719 110.890625 82.90625 111.535156 C 65.582031 112.628906 46.089844 118.71875 42.894531 152.996094 C 41.625 166.429688 43.882812 232.601562 49.210938 250.84375 C 55.695312 272.96875 94.207031 269.824219 109.632812 270.011719 C 119.339844 270.117188 129.359375 270.222656 137.601562 272.230469 C 146.5 274.382812 151.378906 275.570312 159.871094 287.878906 C 170.382812 303.09375 187.894531 354.875 207.625 354.875 C 217.042969 354.875 223.796875 346.351562 219.542969 333.917969 C 216.523438 325.125 201.714844 273.863281 176.949219 244.101562 Z M 176.949219 244.101562 "/><g clip-rule="nonzero" clip-path="url(#5c132bdf56)"><path style=" stroke:none;fill-rule:nonzero;fill:#ccd5ae;fill-opacity:1;" d="M 121.960938 278.960938 L 61.761719 278.960938 C 47.996094 278.960938 39.917969 274.03125 35.558594 263 C 31.3125 252.261719 31.3125 237.773438 31.3125 224.421875 L 31.3125 131.847656 C 31.3125 127.449219 27.734375 123.867188 23.332031 123.867188 C 18.929688 123.867188 15.351562 127.449219 15.351562 131.847656 L 15.351562 225.015625 C 15.351562 239.191406 15.351562 255.289062 20.710938 268.859375 C 27.546875 286.152344 41.355469 294.925781 61.761719 294.925781 L 121.960938 294.925781 C 133.335938 294.925781 134.792969 301.773438 134.792969 307.746094 L 134.792969 349.464844 C 134.792969 353.878906 138.363281 357.445312 142.773438 357.445312 C 147.175781 357.445312 150.757812 353.878906 150.757812 349.464844 L 150.757812 307.746094 C 150.757812 289.992188 139.714844 278.960938 121.960938 278.960938 Z M 121.960938 278.960938 "/></g><g clip-rule="nonzero" clip-path="url(#f67df88507)"><path style=" stroke:none;fill-rule:nonzero;fill:#ccd5ae;fill-opacity:1;" d="M 340.367188 205.796875 L 163.441406 205.796875 C 159.039062 205.796875 155.460938 209.367188 155.460938 213.777344 C 155.460938 218.191406 159.039062 221.757812 163.441406 221.757812 L 235.277344 221.757812 L 235.277344 357.457031 L 319.078125 357.457031 L 319.078125 221.757812 L 340.359375 221.757812 C 344.761719 221.757812 348.339844 218.191406 348.339844 213.777344 C 348.339844 209.367188 344.769531 205.796875 340.367188 205.796875 Z M 340.367188 205.796875 "/></g><path style=" stroke:none;fill-rule:nonzero;fill:#ccd5ae;fill-opacity:1;" d="M 185.523438 166.535156 L 226.804688 166.535156 L 226.804688 200.46875 L 257.859375 200.46875 L 257.859375 166.535156 L 292.675781 166.535156 C 297.058594 166.535156 301.46875 163.027344 302.449219 158.761719 L 319.972656 82.773438 C 320.949219 78.507812 318.160156 75 313.78125 75 L 206.617188 75 C 202.234375 75 197.824219 78.507812 196.847656 82.773438 L 179.320312 158.761719 C 178.355469 163.027344 181.132812 166.535156 185.523438 166.535156 Z M 209.644531 88.839844 L 304.363281 88.839844 L 289.636719 152.703125 L 194.921875 152.703125 Z M 209.644531 88.839844 "/></g></svg>